<?xml version="1.0" standalone="no"?>
<!DOCTYPE svg PUBLIC "-//W3C//DTD SVG 20010904//EN"
 "http://www.w3.org/TR/2001/REC-SVG-20010904/DTD/svg10.dtd">
<svg version="1.0" xmlns="http://www.w3.org/2000/svg"
 width="128.000000pt" height="128.000000pt" viewBox="0 0 128.000000 128.000000"
 preserveAspectRatio="xMidYMid meet">
<metadata>
Created by potrace 1.14, written by Peter Selinger 2001-2017
</metadata>
<g transform="translate(0.000000,128.000000) scale(0.100000,-0.100000)"
fill="#000000" stroke="none">
<path d="M504 1221 c-89 -41 -113 -152 -64 -298 15 -45 36 -97 48 -117 12 -21
18 -35 14 -32 -5 3 -32 21 -60 40 -78 52 -156 78 -239 80 -82 1 -115 -16 -146
-75 -15 -28 -17 -47 -11 -109 3 -41 8 -90 9 -108 5 -60 16 -105 32 -128 19
-29 90 -64 131 -64 18 0 32 -2 32 -5 0 -3 -12 -24 -27 -48 -63 -100 -29 -209
77 -242 14 -4 41 -19 60 -32 51 -34 104 -47 145 -33 44 14 99 78 121 140 l17
48 33 -68 c44 -92 87 -125 164 -125 47 0 67 6 107 31 27 17 63 36 81 42 48 17
90 49 108 84 32 61 -10 155 -106 240 l-48 43 59 2 c74 2 145 35 176 81 18 28
21 43 17 95 -3 34 -4 91 -4 127 1 111 -45 154 -151 143 -53 -6 -160 -47 -209
-80 -19 -12 -38 -23 -42 -23 -4 0 6 24 21 53 62 113 77 220 38 277 -41 62 -76
75 -217 77 -104 2 -132 -1 -166 -16z"/>
</g>
</svg>
